<svg id="visual" viewBox="0 0 900 600" width="900" height="600" xmlns="http://www.w3.org/2000/svg" xmlns:xlink="http://www.w3.org/1999/xlink" version="1.1"><rect x="0" y="0" width="900" height="600" fill="#001220"></rect><g fill="none" stroke="#A7233A" stroke-width="2"><circle r="56" cx="559" cy="178"></circle><circle r="34" cx="115" cy="135"></circle><circle r="36" cx="685" cy="423"></circle><circle r="38" cx="392" cy="174"></circle><circle r="45" cx="815" cy="88"></circle><circle r="38" cx="762" cy="322"></circle><circle r="46" cx="181" cy="510"></circle><circle r="40" cx="601" cy="319"></circle><circle r="34" cx="69" cy="535"></circle><circle r="33" cx="286" cy="59"></circle><circle r="42" cx="681" cy="152"></circle><circle r="35" cx="281" cy="369"></circle><circle r="50" cx="429" cy="478"></circle><circle r="48" cx="147" cy="273"></circle><circle r="53" cx="555" cy="59"></circle><circle r="54" cx="73" cy="394"></circle><circle r="49" cx="428" cy="326"></circle><circle r="49" cx="812" cy="433"></circle><circle r="49" cx="835" cy="214"></circle><circle r="43" cx="535" cy="531"></circle><circle r="44" cx="699" cy="539"></circle><circle r="37" cx="281" cy="199"></circle><circle r="53" cx="319" cy="542"></circle></g></svg>